<svg xmlns="http://www.w3.org/2000/svg" viewBox="0 0 90 112.5" fill="none" x="0px" y="0px"><path d="M78.4402 56.5277C77.7037 56.5277 77.1075 55.9314 77.1075 55.1949V23.6655H12.7509V55.1949C12.7509 55.9314 12.1547 56.5277 11.4182 56.5277C10.6817 56.5277 10.0854 55.9314 10.0854 55.1949V22.3327C10.0854 21.5962 10.6817 21 11.4182 21H78.4402C79.1768 21 79.773 21.5962 79.773 22.3327V55.1949C79.773 55.9314 79.1768 56.5277 78.4402 56.5277Z" fill="#281960"/><path d="M78.5104 68.8727H11.5584C7.56021 68.8727 5 62.8053 5 59.6137C5 58.8772 5.59623 58.281 6.33274 58.281H30.7076C31.4441 58.281 32.0403 58.8772 32.0403 59.6137C32.0403 59.9294 32.3209 60.175 32.6014 60.175H57.3972C57.7128 60.175 57.9583 59.8943 57.9583 59.6137C57.9583 58.8772 58.5545 58.281 59.291 58.281H83.6659C84.4024 58.281 84.9986 58.8772 84.9986 59.6137C85.0687 62.7702 82.5085 68.8727 78.5104 68.8727ZM7.8759 60.9465C8.40198 63.3314 10.1205 66.137 11.5584 66.137H78.5104C79.9834 66.137 81.6668 63.3314 82.1928 60.9465H60.4133C59.8873 62.0688 58.7649 62.8756 57.4322 62.8756H32.6365C31.3038 62.8756 30.1815 62.0688 29.6554 60.9465H7.8759Z" fill="#503cc4" transform="translate(0,3)"/><text x="0" y="105" fill="#000000" font-size="5px" font-weight="bold" font-family="'Helvetica Neue', Helvetica, Arial-Unicode, Arial, Sans-serif"></text><text x="0" y="110" fill="#251e4f" font-size="5px" font-weight="bold" font-family="'Helvetica Neue', Helvetica, Arial-Unicode, Arial, Sans-serif"></text></svg>